<svg enable-background="new 0 0 1080 1080" viewBox="0 0 1080 1080" xmlns="http://www.w3.org/2000/svg"><path d="m331.25 507.75 20.01 20.01v25.09l-20.01 19.99 20.01 20.03v5.69c0 43.85-35.67 79.51-79.51 79.51h-110.81c-43.85 0-79.51-35.67-79.51-79.51v-117.13c0-43.85 35.67-79.51 79.51-79.51h103.86c47.46 0 86.12 38.45 86.46 85.82z" fill="#fff"/><path d="m160.78 486.71h.02c.07-.09.11-.16.16-.22-.07.06-.14.15-.18.22zm0 0h.02c.07-.09.11-.16.16-.22-.07.06-.14.15-.18.22zm0 0h.02c.07-.09.11-.16.16-.22-.07.06-.14.15-.18.22zm0 0h.02c.07-.09.11-.16.16-.22-.07.06-.14.15-.18.22zm0 0h.02c.07-.09.11-.16.16-.22-.07.06-.14.15-.18.22zm197.17-1.56c-.36-49.72-40.94-90.08-90.75-90.08h-109.01c-46.02 0-83.46 37.44-83.46 83.46v122.95c0 46.02 37.44 83.46 83.46 83.46h116.3c46.02 0 83.46-37.44 83.46-83.46v-5.98l-21-21.03 21-20.98v-26.33l-21-21zm-40.62 116.86c0 11.3-4.39 21.92-12.4 29.92-7.98 7.98-18.62 12.4-29.92 12.4h-117.33c-11.33 0-21.96-4.42-29.95-12.4-7.98-8-12.4-18.62-12.4-29.92v-18.37h43.26l.09.62c1.61 9.83 10.03 16.99 20.05 16.99h75.23c9.99 0 18.42-7.16 20.02-16.99l.11-.62h43.23v18.37zm0-105.62h-43.23l-.11-.62c-1.61-9.83-10.03-16.99-20.02-16.99h-75.23c-.33 0-.62 0-.94.02-.38.02-.67.02-.94.07-.25 0-.49.02-.71.07-.29.04-.51.07-.76.11s-.49.09-.74.13l-.65.13c-.25.07-.49.13-.71.2-.45.13-.76.22-1.07.33-.22.07-.42.13-.62.22-.29.09-.54.2-.78.31-.62.25-1.14.51-1.65.8-.27.11-.49.22-.69.38-.58.31-1.07.65-1.58 1-.22.18-.47.33-.69.54-.22.18-.45.33-.65.54-.27.2-.47.38-.67.58l-.02.02c-.4.38-.78.78-1.14 1.18-.38.4-.74.83-1.07 1.27-.22.27-.45.56-.65.87-.33.49-.65.98-.94 1.49-.16.27-.29.49-.4.74-.13.29-.27.51-.36.74-.2.4-.33.74-.47 1.09-.13.27-.18.47-.25.65-.31.85-.56 1.69-.74 2.59-.07.33-.13.62-.18.91-.18 1.05-.27 2.16-.27 3.3v19.42h158.91v43.06h-201.98v-83.33c0-.02 0-.02 0-.04v-.13c0-11.33 4.41-21.94 12.4-29.95 7.58-7.58 17.57-11.95 28.27-12.35.74-.02 1.45-.04 2.19-.04h116.82c23.32 0 42.32 19 42.32 42.34zm-156.53-9.68c.07-.09.11-.16.16-.22-.07.07-.13.16-.18.22zm-.02 0h.02c.07-.09.11-.16.16-.22-.07.06-.14.15-.18.22zm0 0h.02c.07-.09.11-.16.16-.22-.07.06-.14.15-.18.22zm0 0h.02c.07-.09.11-.16.16-.22-.07.06-.14.15-.18.22zm0 0h.02c.07-.09.11-.16.16-.22-.07.06-.14.15-.18.22zm0 0h.02c.07-.09.11-.16.16-.22-.07.06-.14.15-.18.22zm0 0h.02c.07-.09.11-.16.16-.22-.07.06-.14.15-.18.22z"/><path d="m160.95 486.49c-.04.07-.09.13-.16.22h-.02c.05-.07.12-.16.18-.22z"/><path d="m160.95 486.49c-.04.07-.09.13-.16.22h-.02c.05-.07.12-.16.18-.22z" fill="#fff"/><path d="m472.85 454.56h-51.8v20.79h47.55v17h-47.55v25.17h54.19v17.6h-74.18v-97.89h71.79z"/><path d="m576.16 462.99c3.1 1.24 5.91 3.41 8.43 6.51 2.04 2.52 3.41 5.62 4.12 9.3.44 2.43.66 6 .66 10.69l-.13 45.63h-19.39v-46.09c0-2.75-.44-5-1.33-6.77-1.68-3.36-4.78-5.05-9.3-5.05-5.22 0-8.83 2.17-10.83 6.51-1.02 2.3-1.53 5.07-1.53 8.3v43.1h-19.06v-43.1c0-4.3-.44-7.42-1.33-9.37-1.59-3.5-4.72-5.25-9.36-5.25-5.4 0-9.03 1.75-10.89 5.25-1.02 1.99-1.53 4.96-1.53 8.9v43.57h-19.19v-72.26h18.4v10.56c2.35-3.76 4.56-6.44 6.64-8.04 3.67-2.83 8.43-4.25 14.28-4.25 5.53 0 10.01 1.22 13.42 3.65 2.74 2.26 4.83 5.16 6.24 8.7 2.48-4.25 5.56-7.37 9.23-9.36 3.9-1.99 8.24-2.99 13.02-2.99 3.19 0 6.33.62 9.43 1.86z"/><path d="m631.64 491.08c3.52-.44 6.04-1 7.56-1.66 2.72-1.15 4.08-2.94 4.08-5.38 0-2.97-1.04-5.01-3.13-6.14s-5.15-1.69-9.19-1.69c-4.53 0-7.74 1.11-9.63 3.32-1.35 1.64-2.24 3.85-2.69 6.64h-18.26c.4-6.33 2.18-11.53 5.34-15.61 5.02-6.38 13.65-9.56 25.88-9.56 7.96 0 15.03 1.57 21.21 4.72 6.18 3.14 9.27 9.08 9.27 17.8v33.21c0 2.3.04 5.09.13 8.37.13 2.48.51 4.16 1.13 5.05s1.55 1.62 2.79 2.19v2.79h-20.59c-.58-1.46-.97-2.83-1.2-4.12-.22-1.28-.4-2.75-.53-4.38-2.63 2.83-5.66 5.25-9.09 7.24-4.1 2.35-8.73 3.52-13.89 3.52-6.59 0-12.04-1.87-16.33-5.61-4.3-3.74-6.45-9.04-6.45-15.91 0-8.9 3.46-15.34 10.37-19.33 3.79-2.17 9.37-3.72 16.73-4.65zm11.58 8.84c-1.21.75-2.44 1.36-3.67 1.83-1.23.46-2.93.9-5.08 1.29l-4.31.8c-4.04.71-6.94 1.57-8.7 2.59-2.98 1.73-4.47 4.41-4.47 8.03 0 3.23.91 5.57 2.73 7.01s4.03 2.16 6.64 2.16c4.14 0 7.95-1.2 11.43-3.59 3.49-2.39 5.29-6.75 5.43-13.08z"/><path d="m733.18 466.88c4.74 3.92 7.11 10.42 7.11 19.49v48.75h-19.39v-44.03c0-3.81-.51-6.73-1.52-8.77-1.85-3.72-5.36-5.58-10.55-5.58-6.37 0-10.75 2.72-13.12 8.17-1.23 2.88-1.85 6.55-1.85 11.02v39.18h-18.93v-72.26h18.33v10.56c2.42-3.72 4.72-6.4 6.88-8.04 3.88-2.92 8.8-4.38 14.75-4.38 7.46.01 13.55 1.97 18.29 5.89z"/><path d="m772.95 462.73v43.63c0 4.12.48 7.22 1.45 9.3 1.72 3.67 5.09 5.51 10.11 5.51 6.43 0 10.84-2.61 13.22-7.84 1.23-2.83 1.85-6.58 1.85-11.22v-39.38h19.19v72.39h-18.4v-10.23c-.18.22-.62.89-1.32 1.99-.71 1.11-1.54 2.08-2.52 2.92-2.96 2.66-5.82 4.47-8.58 5.45-2.76.97-5.99 1.46-9.7 1.46-10.68 0-17.88-3.85-21.59-11.56-2.08-4.25-3.11-10.52-3.11-18.79v-43.63z"/><path d="m880.53 464.19c5.05 2.26 9.22 5.83 12.51 10.71 2.97 4.3 4.89 9.29 5.77 14.96.51 3.33.72 8.12.62 14.37h-52.72c.29 7.26 2.82 12.35 7.57 15.27 2.89 1.82 6.37 2.72 10.44 2.72 4.31 0 7.81-1.11 10.51-3.32 1.47-1.2 2.77-2.86 3.9-4.98h19.33c-.51 4.3-2.85 8.66-7.02 13.08-6.48 7.04-15.56 10.56-27.23 10.56-9.64 0-18.14-2.97-25.5-8.91s-11.05-15.6-11.05-28.98c0-12.54 3.32-22.16 9.97-28.85s15.28-10.04 25.88-10.04c6.3.02 11.97 1.15 17.02 3.41zm-28.32 16.36c-2.68 2.76-4.36 6.49-5.04 11.21h32.61c-.34-5.03-2.03-8.84-5.04-11.44-3.02-2.6-6.76-3.9-11.23-3.9-4.86-.01-8.62 1.37-11.3 4.13z"/><path d="m924.52 535.12h-18.93v-97.89h18.93z"/><path d="m986.35 464.19c5.05 2.26 9.22 5.83 12.51 10.71 2.97 4.3 4.89 9.29 5.77 14.96.51 3.33.72 8.12.62 14.37h-52.72c.29 7.26 2.82 12.35 7.57 15.27 2.89 1.82 6.37 2.72 10.44 2.72 4.31 0 7.81-1.11 10.51-3.32 1.47-1.2 2.77-2.86 3.9-4.98h19.33c-.51 4.3-2.85 8.66-7.02 13.08-6.48 7.04-15.56 10.56-27.23 10.56-9.64 0-18.13-2.97-25.5-8.91-7.36-5.94-11.05-15.6-11.05-28.98 0-12.54 3.33-22.16 9.97-28.85s15.28-10.04 25.89-10.04c6.28.02 11.96 1.15 17.01 3.41zm-28.32 16.36c-2.68 2.76-4.35 6.49-5.04 11.21h32.61c-.34-5.03-2.03-8.84-5.04-11.44-3.02-2.6-6.76-3.9-11.23-3.9-4.86-.01-8.62 1.37-11.3 4.13z"/><path d="m415.2 614.16c.63 4.47 1.88 7.82 3.73 10.03 3.39 4.03 9.2 6.04 17.43 6.04 4.93 0 8.93-.53 12-1.59 5.83-2.04 8.75-5.82 8.75-11.36 0-3.23-1.43-5.73-4.28-7.5-2.86-1.73-7.39-3.26-13.59-4.58l-10.6-2.32c-10.42-2.3-17.57-4.81-21.47-7.51-6.6-4.52-9.9-11.58-9.9-21.18 0-8.77 3.23-16.05 9.68-21.85s15.93-8.7 28.44-8.7c10.44 0 19.35 2.73 26.72 8.2s11.24 13.4 11.6 23.81h-19.66c-.36-5.89-3-10.07-7.9-12.55-3.27-1.64-7.33-2.46-12.19-2.46-5.4 0-9.71 1.06-12.94 3.19-3.22 2.13-4.83 5.09-4.83 8.9 0 3.5 1.59 6.11 4.77 7.84 2.04 1.15 6.38 2.5 13.01 4.05l17.18 4.05c7.53 1.77 13.17 4.14 16.93 7.11 5.84 4.61 8.75 11.27 8.75 19.99 0 8.95-3.46 16.37-10.37 22.28s-16.68 8.87-29.3 8.87c-12.89 0-23.02-2.91-30.41-8.73-7.38-5.82-11.08-13.82-11.08-24.01h19.53z"/><path d="m526.35 574.52c2.17 1.69 4.38 4.46 6.64 8.31v-10.71h18.26v100.95h-18.73v-37.66c-1.42 2.92-3.84 5.52-7.27 7.8s-8.11 3.42-14.05 3.42c-8.37 0-15.5-3.34-21.39-10.04-5.89-6.69-8.83-15.62-8.83-26.79 0-12.05 2.95-21.69 8.87-28.91 5.91-7.22 13.2-10.84 21.88-10.84 6.03.01 10.9 1.5 14.62 4.47zm4.05 47.53c1.77-3.68 2.66-8.34 2.66-13.97 0-4.43-.75-8.4-2.26-11.9-2.71-6.3-7.45-9.45-14.24-9.45-4.79 0-8.64 1.84-11.55 5.52s-4.36 9.27-4.36 16.76c0 5.01.67 9.11 2 12.31 2.48 6.08 7.1 9.11 13.84 9.11 6.52 0 11.16-2.79 13.91-8.38z"/><path d="m583.98 571.99v43.63c0 4.12.48 7.22 1.45 9.3 1.72 3.67 5.09 5.51 10.11 5.51 6.43 0 10.84-2.61 13.22-7.84 1.23-2.83 1.85-6.58 1.85-11.22v-39.38h19.19v72.39h-18.4v-10.23c-.18.22-.62.89-1.32 1.99-.71 1.11-1.54 2.08-2.52 2.92-2.96 2.66-5.82 4.47-8.58 5.45-2.76.97-5.99 1.46-9.7 1.46-10.68 0-17.88-3.85-21.59-11.56-2.08-4.25-3.11-10.52-3.11-18.79v-43.63z"/><path d="m663.85 563.35h-19.19v-17.47h19.19zm-19.19 8.64h19.19v72.39h-19.19z"/><path d="m697.7 644.38h-18.93v-97.89h18.93z"/><path d="m731.68 644.38h-18.93v-97.89h18.93z"/><path d="m775.01 600.34c3.52-.44 6.04-1 7.56-1.66 2.72-1.15 4.08-2.94 4.08-5.38 0-2.97-1.04-5.01-3.13-6.14s-5.15-1.69-9.19-1.69c-4.53 0-7.74 1.11-9.63 3.32-1.35 1.64-2.24 3.85-2.69 6.64h-18.26c.4-6.33 2.18-11.53 5.34-15.61 5.02-6.38 13.65-9.56 25.88-9.56 7.96 0 15.03 1.57 21.21 4.72 6.18 3.14 9.27 9.08 9.27 17.8v33.21c0 2.3.04 5.09.13 8.37.13 2.48.51 4.16 1.13 5.05s1.55 1.62 2.79 2.19v2.79h-20.59c-.58-1.46-.97-2.83-1.2-4.12-.22-1.28-.4-2.75-.53-4.38-2.63 2.83-5.66 5.25-9.09 7.24-4.1 2.35-8.73 3.52-13.89 3.52-6.59 0-12.04-1.87-16.33-5.61-4.3-3.74-6.45-9.04-6.45-15.91 0-8.9 3.46-15.34 10.37-19.33 3.79-2.17 9.37-3.72 16.73-4.65zm11.57 8.84c-1.21.75-2.44 1.36-3.67 1.83-1.23.46-2.93.9-5.08 1.29l-4.31.8c-4.04.71-6.94 1.57-8.7 2.59-2.98 1.73-4.47 4.41-4.47 8.03 0 3.23.91 5.57 2.73 7.01s4.03 2.16 6.64 2.16c4.14 0 7.95-1.2 11.43-3.59 3.49-2.39 5.29-6.75 5.43-13.08z"/><path d="m876.54 576.14c4.74 3.92 7.11 10.42 7.11 19.49v48.75h-19.39v-44.03c0-3.81-.51-6.73-1.52-8.77-1.85-3.72-5.36-5.58-10.55-5.58-6.37 0-10.75 2.72-13.12 8.17-1.23 2.88-1.85 6.55-1.85 11.02v39.18h-18.92v-72.26h18.33v10.56c2.42-3.72 4.72-6.4 6.88-8.04 3.88-2.92 8.8-4.38 14.75-4.38 7.45.01 13.55 1.97 18.28 5.89z"/><path d="m890.01 586.13v-13.48h10.09v-20.19h18.73v20.19h11.75v13.48h-11.75v38.25c0 2.97.37 4.81 1.13 5.54.75.73 3.06 1.1 6.91 1.1.57 0 1.18-.01 1.83-.03.64-.02 1.27-.05 1.89-.1v14.15l-8.96.33c-8.94.31-15.05-1.24-18.33-4.65-2.13-2.17-3.19-5.51-3.19-10.03v-44.56z"/><path d="m986.1 573.45c5.05 2.26 9.22 5.83 12.51 10.71 2.96 4.3 4.89 9.29 5.77 14.96.51 3.33.72 8.12.62 14.37h-52.72c.29 7.26 2.82 12.35 7.57 15.27 2.89 1.82 6.37 2.72 10.44 2.72 4.31 0 7.82-1.11 10.51-3.32 1.47-1.2 2.77-2.86 3.89-4.98h19.33c-.51 4.3-2.85 8.66-7.02 13.08-6.48 7.04-15.56 10.56-27.23 10.56-9.64 0-18.13-2.97-25.5-8.91-7.36-5.94-11.05-15.6-11.05-28.98 0-12.54 3.32-22.16 9.97-28.85s15.28-10.04 25.89-10.04c6.3.02 11.97 1.15 17.02 3.41zm-28.31 16.35c-2.67 2.76-4.36 6.49-5.04 11.21h32.61c-.34-5.03-2.03-8.84-5.04-11.44-3.02-2.6-6.76-3.9-11.23-3.9-4.86 0-8.63 1.37-11.3 4.13z"/></svg>